<svg xmlns="http://www.w3.org/2000/svg" width="512" height="512" viewBox="0 0 512 512"><defs><clipPath id="cp1" clipPathUnits="userSpaceOnUse"><path d="M149.47 0h212c82.84 0 150 67.16 150 150v212c0 82.84-67.16 150-150 150h-212c-82.85 0-150-67.16-150-150V150c0-82.84 67.15-150 150-150"/></clipPath></defs><style>.c{fill:#fff}</style><g clip-path="url(#cp1)"><path fill-rule="evenodd" d="M149.5 0h212c82.8 0 150 67.2 150 150v212c0 82.8-67.2 150-150 150h-212c-82.9 0-150-67.2-150-150V150c0-82.8 67.1-150 150-150" style="fill:#f2eeda"/><path d="m466.5 346.1-26.9-37.8q.1-1.9.1-3.8l17.3-13.1c1.7-1.3 2.7-3.5 2.6-5.7-.2-2.2-1.4-4.2-3.3-5.2l-18.6-9.8q-.4-2.7-.9-5.4l14.6-16.3c1.5-1.6 2-3.9 1.5-6.1-.6-2.1-2.2-3.8-4.2-4.4l-20.3-5.8q-.9-2.6-1.8-5.1l11.2-18.8c1.2-1.9 1.3-4.3.4-6.2-1-2-2.8-3.3-5-3.5l-21.1-1.6q-1.3-2.3-2.7-4.6l7.5-20.6c.8-2.1.5-4.4-.8-6.2-1.3-1.7-3.4-2.6-5.6-2.3l-21 2.6q-1.8-1.9-3.6-3.9l3.5-21.6c.4-2.2-.4-4.4-2-5.9-1.6-1.4-3.8-1.8-5.9-1.1l-20.2 6.8q-2.1-1.6-4.3-3.1l-.6-21.8c-.1-2.3-1.2-4.3-3.1-5.3-1.9-1.1-4.1-1.1-6 0l-18.7 10.8q-2.4-1.1-4.8-2.1l-4.7-21.3c-.5-2.1-2-3.8-4-4.5-2.1-.7-4.3-.2-6 1.3L292.7 109q-2.5-.6-5.1-1.2L279 88.1c-.9-2-2.7-3.4-4.9-3.7-2.1-.2-4.2.7-5.6 2.5l-13.4 17.2q-2.7-.1-5.3-.1l-12.3-17.5c-1.2-1.8-3.3-2.7-5.4-2.5s-4.1 1.5-5.1 3.5L217 107l-5.2 1-15.4-14.6c-1.5-1.5-3.7-2-5.8-1.4s-3.7 2.3-4.4 4.4l-6.1 21.2q-2.5.9-5 2l-17.9-11.2c-1.8-1.2-4.1-1.2-6-.2-2 1-3.3 3-3.5 5.2l-2.1 21.9q-2.2 1.4-4.4 2.9l-19.8-7.3c-2-.7-4.3-.3-6 1.1s-2.6 3.5-2.4 5.8l2 21.7q-1.9 1.9-3.9 3.8l-20.8-3.1c-2.1-.3-4.3.5-5.7 2.2s-1.9 4-1.3 6.1l6.1 20.8q-.2.4-.5.8l-44.6 24.2s-6.3 2.3-2 14.1c3.8 10.3 26.4 53.9 38.4 76.7 4.6 11.1 7.9 18.2 8.6 17.9 1.1-.5 1.9-17.7-6.7-41-5.8-20.3-12.1-50.7-7.7-52.5 0 0 5.5-3.7 14.6-4.7.2.4-.3-.3 0 0 0 0 140.4 130.8 318.7 106.3 18.5 2.6 26.1 15.5 26.1 15.5 2.9 3.3-15.2 26.4-28.7 41.2-17.1 16.3-23.7 31.2-23 32 .5.5 6.3-4.1 14.8-11.6 19.8-14.5 57.4-42.1 65-49.3 8.6-8.2 4.1-12.8 4.1-12.8" style="fill:#f25100"/><path d="M299.3 247.1s22.5-12.7 33.1 10.8c0 0 5.1 28.5-11.9 36.3 0 0-26.8 9.9-33.1-10.9 0 0-9.8-17.9 11.9-36.2"/><path fill-rule="evenodd" d="M302.8 269.8c-5.1-1.7-7.4-8.8-5.1-15.8 2.3-7.1 8.4-11.4 13.5-9.7 5.1 1.6 7.4 8.7 5.1 15.8-2.3 7-8.4 11.4-13.5 9.7" class="c"/><path d="M227.1 217.8s32.5-3.2 31.1 27.4c0 0-2.7 35.4-34.7 26.9 0 0-37.5-20.9 3.6-54.3"/><path fill-rule="evenodd" d="M223.5 244.7c-5.3-1.8-7.7-9.1-5.3-16.3 2.4-7.3 8.7-11.8 13.9-10.1 5.3 1.8 7.7 9.1 5.3 16.4-2.4 7.2-8.6 11.7-13.9 10" class="c"/><path d="M-289.7 292.9c74.5 8.7 126.1-124.5 288.3-112.6 162.1 11.8 193 123.2 343.9 139.3s177.8-81.2 359.1-74.2c181.2 7 311.7 150.5 311.7 150.5L618.5 667.7 65.8 695.3l-294.1-146.8L-364 293.3" style="fill:#f2b230"/></g></svg>